# xmcd
#
# Track frame offsets: 
#        150
#        14839
#        31508
#        52636
#        72790
#        87040
#        102927
#        120094
#        138341
#        157410
#        176225
#        194042
#        208595
#        226348
#        242842
#        258459
#        287787
#
# Disc length: 4441 seconds
#
# Revision: 3
# Processed by: cddbd v1.5.2PL0 Copyright (c) Steve Scherf et al.
# Submitted via: ExactAudioCopy v0.99pb4
#
DISCID=ec115711
DTITLE=Various Artist - Disco House and Techno Disco (S&V 031)
DYEAR=2000
DGENRE=Disco
TTITLE0=Blockhouse - Disco Hit
TTITLE1=Funk 2001 - Funk 2001
TTITLE2=DJ Hush - Never Mind
TTITLE3=Mogy - Strobe
TTITLE4=Analgesica - Gozando
TTITLE5=99 - Free
TTITLE6=Bacon Popper - Free
TTITLE7=Kike Boy - Drops In Heave
TTITLE8=DJ Kee - Chi Mai
TTITLE9=DJ Olander - Back In The Time
TTITLE10=Mad'n'Craze - Fixxaction!
TTITLE11=PG2 - Bubble
TTITLE12=Limite - Limite Vol. II
TTITLE13=DJ Scott K - The Light
TTITLE14=Dinamic Duet - Open House
TTITLE15=Millo - Dance On The Streets
TTITLE16=video [CD-ROM)
EXTD=
EXTT0=
EXTT1=
EXTT2=
EXTT3=
EXTT4=
EXTT5=
EXTT6=
EXTT7=
EXTT8=
EXTT9=
EXTT10=
EXTT11=
EXTT12=
EXTT13=
EXTT14=
EXTT15=
EXTT16=
PLAYORDER=
